<svg id="Layer_1" data-name="Layer 1" xmlns="http://www.w3.org/2000/svg" xmlns:xlink="http://www.w3.org/1999/xlink" viewBox="0 0 1080 1080"><defs><style>.cls-1,.cls-17,.cls-18,.cls-20{fill:none;}.cls-2{clip-path:url(#clip-path);}.cls-3{fill:#28a2e5;}.cls-4{fill:#3ab9a0;}.cls-5{fill:#1c6355;}.cls-6{fill:#025292;}.cls-7{fill:#0e6eaf;}.cls-8{fill:#3ed6b9;}.cls-9{fill:#1d7564;}.cls-10{fill:#081c66;}.cls-11{fill:#01103d;}.cls-12{fill:#fff;}.cls-13{fill:#dbd9ff;}.cls-14{fill:#cfdbf8;}.cls-15{fill:#cddcff;}.cls-16{fill:#050505;}.cls-17,.cls-18,.cls-20{stroke:#000;stroke-miterlimit:10;}.cls-17{stroke-linecap:round;}.cls-19{fill:#cddbfd;}.cls-20{stroke-width:2px;}.cls-21{fill:#1b6355;}</style><clipPath id="clip-path"><rect class="cls-1" width="1080" height="1080"/></clipPath></defs><title>Main Page</title><g class="cls-2"><path class="cls-3" d="M804.05,299.64s302.1,287.48,89.33,511.62c-73.08,58.47-475.94,247.12-768.29-66.34C55.25,520.78,105.66,376,170.63,361.36c52-8.12,134.81,0,134.81,0s103.94,0,141.3-19.49,261.49-89.33,357.31-42.23"/><path class="cls-4" d="M916.12,276.91s1.63,16.24-14.62,27.61c-17.86,22.74-142.92,177-142.92,177s-17.87,35.73,3.25,61.72c6.49,11.37,17.86,35.73-9.75,68.21l-9.74,17.87s-94.21-6.5-133.19-21.11C589.66,595.24,500.34,562.76,450,527c14.61-22.74,87.7-151,92.57-203,3.25-22.74,8.12-53.6-27.61-86.08-8.12-11.37-30.86-53.6,16.24-79.59,8.12-1.62,39-11.37,65,26,26-4.87,134.81-42.23,225.76,37.35,13,0,69.84,3.25,94.2,55.23"/><path class="cls-5" d="M648.13,614.73l35.74-58.47L766.7,424.7l27.61-40.6s24.36-35.73,9.74-69.84c-4.87-9.74-1.62-61.72,45.48-58.47,13,0,49,14.12,55.38,46,9.43-14.12,11.21-18.43,9.59-24.92-8.12-13-35.73-58.47-97.45-53.6-17.87,1.62-61.72,22.74-55.22,63.34,0,8.12,9.74,34.11,32.48,52-3.25,6.5-14.62,42.23-34.11,61.72-13,16.24-68.21,102.33-69.84,102.33S618.9,603.36,607.53,603.36c16.24,3.25,40.6,11.37,40.6,11.37"/><path class="cls-5" d="M596.16,184.33s-40.6-3.25-45.48,16.24c-4.87,13-6.49,47.1,0,69.84,3.25,17.87,8.13,61.72-1.62,89.33-8.12,22.74-97.22,164.35-97.22,164.35L476,540S568.55,341.87,571.8,330.5s32.48-128.31,24.36-146.17"/><path class="cls-6" d="M869.23,781.34C790.44,959.43,554.3,1027.59,341.8,933.58S20.93,619,99.73,440.87,238.3,487.42,450.8,581.44,948,603.24,869.23,781.34"/><path class="cls-7" d="M870,769.35C796.9,938.47,566.23,999.74,358,907.6S54.47,609.39,115.87,435.68C195.8,209.5,348.48,488.86,454.05,560.32c188.58,127.66,519.73-30.86,416,209"/><path class="cls-4" d="M652.2,272.85l-8.13,4.87L610,285.84l-46.29,8.93s-39,19.49-42.23,22.74S461.36,363,451.61,374.36s-17.86,21.11-17.86,21.11a12.8,12.8,0,0,0-13,6.5c-3.25,6.49-4.87,24.36,3.25,26,1.62-4.87,8.12-8.12,8.12-8.12s14.62-13,35.73-4.87c3.25,1.62,3.25,3.25,3.25,3.25l3.25-1.63v-6.49l-1.63-3.25v-1.62s43.86-26,60.1-27.62c3.25-1.62-11.37,82.84-6.5,97.45,6.5,4.88,103.95,53.6,128.31,60.1l13,3.25s34.1-14.62,48.72-50.35c13-26,21.11-47.1,21.11-47.1s6.5,14.61,8.13,17.86v45.48L744,531.9s-11.37-9.74-22.74-3.25c-4.87,3.25-6.49,3.25-3.25,11.37,1.63,6.5,13,48.73,17.87,52s14.62,3.25,24.36-1.62c8.12-3.25,16.24-4.87,11.37-17.87,1.63-11.36,19.49-65,19.49-102.32,0-30.86-4.87-89.33-29.23-118.56-16.24-19.49-45.48-45.48-48.73-47.1S692,293.15,692,293.15l-4.87-3.25-3.25-1.62s-4.88,21.11-27.61,24.36c-3.25-3.25-11.37-24.36-4.06-39.79"/><path class="cls-8" d="M651.38,314.26s0,9.75-17.86,8.12c-6.5-4.87-13-21.11-3.25-32.48,8.12-8.12,13-9.75,13-9.75l4.87-3.24s1.63,27.61,4.88,34.1a5.65,5.65,0,0,1-1.63,3.25"/><path class="cls-8" d="M659.16,319.94s-7.22,6.55,6,18.68c8,1.54,24.36-4.57,26.23-19.43.55-11.47-1.52-16.17-1.52-16.17l-4.38-11.5s-18,23.07-25,25a5.7,5.7,0,0,0-1.31,3.39"/><polygon class="cls-9" points="657.88 315.89 604.28 453.94 602.66 457.19 607.53 458.81 657.88 315.89"/><path class="cls-10" d="M609.16,283.4s-32.49,1.63-34.11,4.88c-3.25,3.24-32.49,48.72-35.73,63.34s-16.25,113.69-13,123.43c11.37,6.5,118.57,61.72,141.31,63.35,17.86-9.75,53.59-39,69.83-97.45,6.5-37.36,24.37-94.21,24.37-94.21s-29.3-35.49-41.45-36.42C718.82,315,705,384.1,669.25,421.46c-14.62,19.49-32.48,42.23-73.09,35.73-9.74-8.12-21.11-53.6-8.12-87.71,4.87-22.74,16.24-74.71,21.12-86.08"/><path class="cls-11" d="M750.46,377.6s-39,92.58-73.09,118.57c-29.24,22.74-39,30.86-39,30.86l29.23,11.37s66.6-27.61,82.84-160.8"/><path class="cls-6" d="M625.4,624.48,430.5,535.15l4.87-53.6,9.74-3.25,229.23,86.9s-11.59,49.53-36,59.28Z"/><polygon class="cls-4" points="445.11 528.65 441.87 531.9 627.02 613.11 633.52 611.48 630.27 606.61 445.11 528.65"/><polygon class="cls-4" points="448.36 514.03 446.74 520.53 638.39 598.49 641.64 590.37 448.36 514.03"/><polygon class="cls-4" points="497.09 509.16 591.02 543.93 580.11 558.43 497.09 525.4 497.09 509.16"/><path class="cls-12" d="M729.34,583.87s-58.47-1.62-69.84-4.87-37.35-13-50.35-9.74c-13,1.62-29.23,8.12-29.23,8.12l-26,11.37h-3.25v-1.63l3.25-3.25-1.62-3.25H529.57V579l8.12-4.87,1.63-1.63s-14.62,0-13-3.24,8.12-6.5,9.75-6.5,8.12-1.62,8.12-1.62l-1.63-1.63-8.12-1.62-1.62-1.63-1.63-1.62V553l9.75-1.62,21.11-3.25,4.88-1.62v-1.63l-1.63-3.25h-1.62L560.43,540l-3.25-1.62v-4.88s34.11,6.5,39,14.62c11.37,0,86.08-4.87,86.08-4.87L716.35,540s13,39,13,43.85"/><path class="cls-13" d="M605.91,566s-24.37-11.37-35.73-6.5-14.62,13-8.13,22.74c11.37-3.25,39-13,43.86-16.24"/><path class="cls-14" d="M641.64,570.88s9.74-6.5,21.11-6.5,39,3.25,39,3.25,13,0,13-3.25,1.62-16.24,1.62-16.24l3.21,1.69,8.16,32.42L664.46,580s-18-5.83-22.82-9.08"/><path class="cls-12" d="M430.09,421s15,34.52,31.27,47.52c4.87,6.49,16.24,19.49,17.86,30.86s1.63,34.1,3.25,40.6,3.25,16.24,9.74,17.87c0-1.63-1.62-11.37-1.62-16.25,1.62,8.13,6.5,17.87,11.37,19.49,0-4.87-3.25-17.86-1.62-21.11,1.62,4.87,8.12,19.49,11.36,21.11,0-8.12-3.24-19.49-1.62-22.73,3.25,6.49,4.87,11.37,8.12,11.37,1.62-6.5-3.25-14.62-4.87-19.49s-4.87-14.62-3.25-16.25c3.25,0,6.5,3.25,6.5,3.25h4.87l-9.75-11.37s-16.24-16.24-17.86-26c-4.87-11.37-16.24-56.85-22.74-61.72s-23.56-10.57-41,2.83"/><path class="cls-15" d="M438.62,434.45h30.86S476,441,476,444.19s6.5,21.12,6.5,24.37,19.49,43.85,24.36,47.1l3.25-3.25h3.25v-1.62l-17.87-24.37-13-37.35S473,415.76,464,414.55c-10.06-.8-28.58.41-31.83,6.91-1.62,1.62,6.5,13,6.5,13"/><path class="cls-12" d="M662.75,242.8s-7.24,37.56-12.55,42.33c-.88,4.67,2.81,24.26,6.06,25.88,4.87,0,19.49-1.62,27.61-24.36,1.62-13-4.88-55.22-4.88-55.22s8.12-3.25,8.12-8.12-1.62-6.5-8.12-6.5c-1.62-4.87-4.87-29.23-29.23-14.62-9.75,6.5-9.75,6.5-11.37,13,0,3.25,1.62,29.23,24.36,27.61"/><path class="cls-16" d="M640,211.94l3.25-1.63s3.25,4.88,4.87,4.88,6.5,0,9.75-1.63c1.62,0,3.25,4.88,3.25,4.88s4.87,4.87,8.12,3.24,8.12-4.87,8.12-4.87l1.12-1.81s-3.39-19.73-18.5-17.08c-14,5.3-18.35,10.77-20,14"/><line class="cls-17" x1="683.87" y1="220.06" x2="678.99" y2="226.56"/><path class="cls-9" d="M638.39,223.31s-6.5,0-4.87,3.25,5.83,7.21,8.6,4.42c-2.59-2.35-3.73-7.67-3.73-7.67"/><path class="cls-18" d="M653,223.31l-1.63,6.5a5.7,5.7,0,0,0,3.25,1.62"/><path class="cls-16" d="M659.5,224.93c0,.9-.36,1.63-.81,1.63s-.81-.73-.81-1.63.36-1.62.81-1.62.81.73.81,1.62"/><path class="cls-16" d="M646.51,224.93a1.63,1.63,0,1,1-1.62-1.62,1.63,1.63,0,0,1,1.62,1.62"/><path class="cls-19" d="M669.25,239.55s8.12-4.87,8.12-6.5,8.12,47.1,6.5,50.35l-6.5,13L679,252.54s-3.24-14.62-9.74-13"/><line class="cls-18" x1="761.83" y1="557.89" x2="769.95" y2="564.38"/><line class="cls-18" x1="750.46" y1="538.4" x2="743.96" y2="533.52"/><line class="cls-20" x1="460.54" y1="397.91" x2="471.91" y2="404.4"/><polygon class="cls-10" points="590.48 795.83 582.36 781.21 278.64 613.92 278.64 625.29 590.48 795.83"/><path class="cls-12" d="M587.23,778l43.85-121.81s8.12-17.87-16.24-22.74c-29.24-13-180.28-81.21-180.28-81.21a20.81,20.81,0,0,0-21.12,0c-17.86,8.12-120.19,48.73-120.19,48.73l-17.86,8.12Z"/><polygon class="cls-5" points="632.71 735.73 577.48 704.87 590.48 678.89 642.45 704.87 632.71 735.73"/><path class="cls-3" d="M317.62,667.52l-63.35-42.23s-6.49-3.25,0-11.37c11.37-6.5,35.74-24.36,35.74-24.36l58.47,35.73Z"/><path class="cls-4" d="M387.46,596.05l-63.35-42.22s-6.49-3.25,0-11.37c11.37-6.5,35.74-24.37,35.74-24.37l58.47,35.74Z"/><path class="cls-4" d="M492.08,690.26l-91.95-53.67s-9.43-4.13,0-14.45c16.5-8.25,51.87-31,51.87-31l84.88,45.41Z"/><polygon class="cls-12" points="452.96 632.28 490 628.29 474.93 662.36 452.96 632.28"/><path class="cls-4" d="M369.16,415.34A24.13,24.13,0,1,1,345,391.22a24.13,24.13,0,0,1,24.13,24.12"/><path class="cls-21" d="M370,279.84c0,12.58-5.4,22.78-12.06,22.78s-12.06-10.2-12.06-22.78,5.4-22.79,12.06-22.79S370,267.25,370,279.84"/><path class="cls-4" d="M366,279.84c0,12.58-5.4,22.78-12.06,22.78s-12.06-10.2-12.06-22.78,5.4-22.79,12.06-22.79S366,267.25,366,279.84"/><path class="cls-21" d="M361.7,279.84c0,8.14-3.5,14.74-7.81,14.74s-7.8-6.6-7.8-14.74,3.49-14.75,7.8-14.75,7.81,6.6,7.81,14.75"/><path class="cls-21" d="M226.23,225.79c0,12.58-5.4,22.78-12.06,22.78s-12.06-10.2-12.06-22.78S207.51,203,214.17,203s12.06,10.2,12.06,22.79"/><path class="cls-4" d="M222.15,225.79c0,12.58-5.4,22.78-12.06,22.78S198,238.37,198,225.79,203.43,203,210.09,203s12.06,10.2,12.06,22.79"/><path class="cls-21" d="M217.89,225.79c0,8.14-3.49,14.74-7.8,14.74s-7.81-6.6-7.81-14.74,3.5-14.75,7.81-14.75,7.8,6.6,7.8,14.75"/></g></svg>